<?xml version="1.0" standalone="no"?>
<!DOCTYPE svg PUBLIC "-//W3C//DTD SVG 20010904//EN"
 "http://www.w3.org/TR/2001/REC-SVG-20010904/DTD/svg10.dtd">
<svg version="1.0" xmlns="http://www.w3.org/2000/svg"
 width="16.000000pt" height="16.000000pt" viewBox="0 0 16.000000 16.000000"
 preserveAspectRatio="xMidYMid meet">
<metadata>
Created by potrace 1.11, written by Peter Selinger 2001-2013
</metadata>
<g transform="translate(0.000000,16.000000) scale(0.002286,-0.002286)"
fill="#000000" stroke="none">
<path d="M3298 6995 c-2 -1 -41 -5 -88 -9 -100 -7 -225 -22 -295 -36 -27 -5
-61 -12 -75 -14 -370 -68 -753 -211 -1095 -409 -343 -199 -621 -431 -909 -757
-163 -185 -376 -514 -500 -775 -94 -195 -207 -516 -241 -683 -2 -9 -8 -37 -14
-62 -11 -49 -13 -63 -35 -195 -34 -204 -40 -302 -40 -570 0 -214 4 -288 25
-445 12 -89 12 -91 45 -269 14 -71 78 -301 112 -401 54 -157 91 -248 158 -387
450 -929 1280 -1611 2271 -1868 72 -19 142 -36 155 -39 13 -2 60 -11 106 -20
46 -9 111 -19 145 -22 34 -3 65 -8 68 -9 15 -10 227 -20 409 -20 188 0 341 8
430 21 144 21 295 48 345 61 33 8 67 16 75 18 109 22 388 117 549 187 121 53
308 148 353 179 14 11 29 19 33 19 12 0 282 184 370 253 152 119 358 313 468
442 33 39 63 72 67 75 3 3 44 55 90 115 332 437 547 915 654 1456 14 70 28
155 32 190 3 35 8 67 10 70 9 17 19 214 18 399 0 188 -6 331 -19 420 -3 19 -7
56 -10 81 -3 25 -7 54 -9 65 -2 10 -11 60 -21 109 -45 244 -121 489 -228 735
-83 192 -166 343 -293 535 -508 766 -1296 1301 -2191 1489 -99 21 -244 44
-393 61 -55 7 -526 16 -532 10z m-858 -3495 l0 -1590 -370 0 c-289 0 -370 3
-371 13 0 6 -1 76 -2 155 l-2 142 55 1 c30 0 126 1 213 1 l157 0 0 71 c3 469
0 2470 -3 2474 -3 2 -98 5 -211 5 -150 0 -206 3 -207 11 -3 52 -3 300 0 303 2
2 170 4 373 4 l368 0 0 -1590z m422 1405 c27 -99 50 -187 52 -195 2 -8 11 -42
20 -75 9 -33 18 -67 20 -75 2 -8 14 -50 25 -92 12 -43 30 -113 42 -155 11 -43
22 -85 24 -93 2 -8 16 -58 30 -110 14 -52 80 -297 147 -545 66 -247 131 -490
144 -540 14 -49 36 -133 50 -185 56 -211 63 -236 72 -260 l10 -25 7 30 c4 17
11 41 15 55 9 25 29 101 35 130 2 8 14 56 28 105 33 119 148 544 152 564 2 9
33 124 69 256 35 132 98 368 140 525 42 157 80 299 86 315 5 17 36 134 70 260
34 127 66 245 71 263 l11 32 135 0 136 0 -7 -32 c-11 -53 -12 -54 -66 -267
-29 -113 -53 -212 -55 -220 -2 -9 -38 -153 -80 -321 -42 -168 -78 -312 -80
-320 -2 -8 -11 -44 -20 -80 -9 -36 -19 -72 -20 -80 -2 -8 -18 -71 -35 -140
-17 -69 -33 -132 -35 -140 -2 -8 -20 -80 -40 -160 -20 -80 -38 -149 -39 -155
-1 -5 -5 -19 -9 -30 -3 -11 -8 -31 -11 -45 -7 -34 -13 -59 -25 -97 -5 -18 -8
-33 -6 -33 3 0 0 -11 -5 -25 -5 -14 -12 -36 -14 -48 -8 -43 -77 -312 -85 -332
-8 -19 -17 -20 -321 -20 -301 1 -314 2 -322 20 -6 16 -86 332 -103 405 -1 8
-8 35 -15 60 -7 25 -14 52 -15 60 -2 8 -13 53 -25 100 -11 47 -23 92 -25 100
-2 8 -20 80 -40 160 -20 80 -38 152 -40 160 -2 8 -18 71 -35 140 -18 69 -34
135 -36 147 -2 12 -9 34 -14 48 -5 14 -7 25 -5 25 2 0 0 11 -5 25 -5 14 -12
36 -14 48 -2 12 -12 51 -21 87 -9 36 -18 72 -20 80 -2 8 -20 80 -40 160 -20
80 -38 152 -40 160 -2 8 -22 89 -45 180 -23 91 -44 176 -46 190 -3 14 -9 39
-15 56 -5 17 -11 40 -14 50 -2 10 -7 34 -11 52 l-7 33 133 -3 133 -3 49 -180z
m2439 178 c1 -11 1 -286 0 -300 -1 -9 -55 -12 -206 -11 -113 0 -208 -2 -211
-5 -4 -4 -8 -2040 -5 -2479 l1 -66 210 1 c180 2 210 0 211 -13 1 -20 1 -261 0
-282 -1 -17 -26 -18 -371 -18 l-370 0 0 1590 0 1590 370 0 c204 0 370 -3 371
-7z"/>
</g>
</svg>
