<svg width="1024" height="1024" viewBox="0 0 1024 1024" fill="none" xmlns="http://www.w3.org/2000/svg">
<path fill-rule="evenodd" clip-rule="evenodd" d="M1024 512C1024 794.77 794.77 1024 512 1024C229.23 1024 0 794.77 0 512C0 229.23 229.23 0 512 0C794.77 0 1024 229.23 1024 512ZM248.492 744.728H356.598L357.349 279.274H248.492V325.819H310.803V698.934H248.492V744.728ZM372.363 279.274L465.454 651.637H511.249H558.545L652.387 279.274H611.847L511.249 651.637L411.401 279.274H372.363ZM667.401 279.274V744.728H776.258V698.934H713.947V325.819H776.258V279.274H667.401Z" fill="#1A1626"/>
</svg>
