<?xml version="1.0" encoding="utf-8"?>
<!-- Generator: Adobe Illustrator 21.0.0, SVG Export Plug-In . SVG Version: 6.00 Build 0)  -->
<!DOCTYPE svg PUBLIC "-//W3C//DTD SVG 1.1//EN" "http://www.w3.org/Graphics/SVG/1.1/DTD/svg11.dtd">
<svg version="1.1" id="Calque_1" xmlns="http://www.w3.org/2000/svg" xmlns:xlink="http://www.w3.org/1999/xlink" x="0px" y="0px"
	 viewBox="0 0 142 142" style="enable-background:new 0 0 142 142;" xml:space="preserve">
<style type="text/css">
	.st0{fill:#FFFFFF;}
</style>
<path class="st0" d="M70.998,0C31.785,0,0,31.787,0,71c0,39.213,31.785,71,70.998,71C110.215,142,142,110.213,142,71
	C142,31.787,110.215,0,70.998,0z M49.485,103.273h-15.06v-6.349h8.606V45.182h-8.606v-6.455h15.06V103.273z M77.455,90.364h-6.554
	h-6.356L51.636,38.727h5.408l13.857,51.637L84.79,38.727h5.575L77.455,90.364z M107.576,45.182h-8.607v51.741h8.607v6.349H92.515
	V38.727h15.061V45.182z"/>
</svg>
