<svg width="1024" height="1024" viewBox="0 0 1024 1024" fill="none" xmlns="http://www.w3.org/2000/svg">
<path fill-rule="evenodd" clip-rule="evenodd" d="M27.2484 136.502C0 189.98 0 259.987 0 400V624C0 764.013 0 834.02 27.2484 887.498C51.2167 934.538 89.4619 972.783 136.502 996.752C189.98 1024 259.987 1024 400 1024H624C764.013 1024 834.02 1024 887.498 996.752C934.538 972.783 972.783 934.538 996.752 887.498C1024 834.02 1024 764.013 1024 624V400C1024 259.987 1024 189.98 996.752 136.502C972.783 89.4619 934.538 51.2167 887.498 27.2484C834.02 0 764.013 0 624 0H400C259.987 0 189.98 0 136.502 27.2484C89.4619 51.2167 51.2167 89.4619 27.2484 136.502ZM250.007 743.274H357.901L358.651 278.728H250.007V325.183H312.196V697.568H250.007V743.274ZM373.636 278.728L466.545 650.365H512.25H559.454L653.112 278.728H612.652L512.25 650.365L412.598 278.728H373.636ZM668.098 278.728V743.274H776.741V697.568H714.552V325.183H776.741V278.728H668.098Z" fill="#1A1626"/>
</svg>
