<?xml version="1.0" standalone="no"?>
<!DOCTYPE svg PUBLIC "-//W3C//DTD SVG 20010904//EN"
 "http://www.w3.org/TR/2001/REC-SVG-20010904/DTD/svg10.dtd">
<svg version="1.0" xmlns="http://www.w3.org/2000/svg"
 width="700.000000pt" height="700.000000pt" viewBox="0 0 700.000000 700.000000"
 preserveAspectRatio="xMidYMid meet">
<metadata>
Created by potrace 1.14, written by Peter Selinger 2001-2017
</metadata>
<g transform="translate(0.000000,700.000000) scale(0.100000,-0.100000)"
fill="#000000" stroke="none">
<path d="M1919 6996 c-2 -2 -69 -7 -149 -10 -80 -4 -163 -9 -185 -11 -148 -17
-204 -24 -261 -35 -28 -6 -63 -13 -77 -16 -61 -11 -239 -75 -318 -114 -279
-141 -523 -369 -688 -647 -91 -153 -166 -362 -187 -521 -5 -31 -9 -59 -9 -62
-1 -3 -5 -41 -9 -85 -5 -44 -10 -89 -12 -100 -15 -79 -19 -512 -19 -1890 0
-1409 4 -1757 20 -1915 19 -182 23 -209 46 -318 27 -126 52 -200 108 -318 184
-386 541 -708 932 -838 57 -19 117 -37 133 -40 16 -3 52 -10 80 -16 53 -10 80
-14 181 -25 33 -4 76 -9 95 -11 127 -15 535 -19 1910 -19 1374 0 1760 4 1890
19 19 3 62 7 95 11 72 7 121 14 155 21 14 2 36 7 50 9 55 10 71 14 132 31 464
129 913 566 1057 1030 32 103 34 110 51 204 26 148 34 222 47 450 10 164 10
3241 0 3435 -4 83 -10 170 -12 195 -8 72 -16 143 -20 165 -1 11 -6 40 -9 65
-79 522 -451 987 -971 1215 -125 55 -363 104 -580 121 -50 3 -112 9 -140 11
-54 6 -3330 14 -3336 9z m530 -3488 l-1 -1588 -369 0 -369 0 0 155 0 155 209
0 c191 0 209 2 213 18 3 14 2 2445 -1 2509 -1 21 -4 21 -188 21 -104 1 -198 1
-210 1 -23 1 -23 2 -23 155 0 95 4 156 10 158 6 2 172 3 371 3 l360 0 -2
-1587z m369 1577 c5 -6 24 -66 42 -135 18 -69 50 -188 70 -265 21 -77 61 -228
90 -335 29 -107 60 -224 70 -260 10 -36 27 -101 39 -145 20 -74 111 -413 161
-600 12 -44 30 -111 40 -150 10 -38 50 -188 89 -333 39 -145 71 -270 71 -278
0 -55 30 42 139 444 67 251 129 477 136 502 8 25 50 182 95 350 45 168 116
429 157 580 41 151 77 283 79 293 2 9 6 25 9 35 2 9 21 80 41 157 21 77 39
142 41 144 8 10 265 6 269 -4 3 -6 -9 -64 -26 -130 -17 -66 -33 -127 -35 -135
-2 -8 -22 -89 -45 -180 -23 -91 -43 -172 -45 -180 -2 -8 -24 -98 -50 -200 -26
-102 -48 -192 -50 -200 -2 -8 -36 -141 -75 -295 -40 -154 -74 -289 -76 -300
-2 -11 -55 -220 -117 -465 l-113 -445 -317 0 -317 -1 -10 36 c-79 298 -620
2486 -617 2494 6 15 242 15 255 1z m2485 6 c4 0 7 -71 7 -156 0 -141 -2 -155
-17 -156 -10 0 -106 -1 -213 -1 l-195 0 0 -1272 0 -1271 213 -3 212 -2 0 -155
0 -155 -372 2 -371 3 1 1560 c0 858 1 1571 1 1585 l1 25 363 -1 c199 -1 365
-2 370 -3z"/>
</g>
</svg>
