<svg version="1" id="Calque_1" xmlns="http://www.w3.org/2000/svg" viewBox="0 0 100 100"><style>.st0{fill:#C32361;}</style><path class="st0" d="M50 97.66C23.68 97.66 2.27 76.28 2.27 50S23.67 2.34 50 2.34 97.73 23.72 97.73 50 76.33 97.66 50 97.66zm40.26-41.13c-1.4-.44-12.63-3.8-25.4-1.76 5.33 14.64 7.5 26.57 7.92 29.03 9.13-6.16 15.65-15.94 17.46-27.27h.02zm-24.34 31c-.6-3.56-2.98-16-8.7-30.87l-.28.1c-22.98 8-31.24 23.92-31.98 25.42 6.92 5.38 15.6 8.6 25.04 8.6 5.65 0 11.03-1.15 15.93-3.24zm-46.2-10.26c.9-1.55 12.1-20.06 33.13-26.85.53-.18 1.08-.33 1.6-.5-1-2.3-2.13-4.62-3.3-6.9-20.36 6.1-40.1 5.84-41.9 5.8v1.23C9.22 60.52 13.2 70.07 19.7 77.27zM10.1 41.72c1.82.03 18.6.1 37.7-4.97-6.78-11.98-14.07-22.05-15.14-23.52-11.4 5.35-19.93 15.87-22.57 28.5zm30.35-31.24c1.12 1.5 8.53 11.57 15.2 23.84 14.5-5.43 20.65-13.67 21.38-14.7C69.8 13.2 60.36 9.34 50 9.34c-3.3 0-6.5.4-9.55 1.13zm41.1 13.83c-.85 1.18-7.68 9.92-22.75 16.07.94 1.95 1.85 3.92 2.7 5.9l.87 2.1c13.57-1.7 27.05 1.04 28.4 1.32-.1-9.63-3.53-18.45-9.2-25.38z"/></svg>