<svg id="Calque_1" xmlns="http://www.w3.org/2000/svg" viewBox="0 0 100 100"><style>.st0{fill:#C32361;}</style><path class="st0" d="M50 98.93C22.98 98.93 1 76.98 1 50S22.98 1.07 50 1.07 99 23.02 99 50 77.02 98.93 50 98.93zM91.33 56.7c-1.44-.45-12.96-3.9-26.07-1.8 5.47 15.03 7.7 27.27 8.13 29.8 9.37-6.33 16.06-16.37 17.92-28zM66.34 88.54c-.62-3.67-3.05-16.45-8.93-31.7l-.28.1c-23.6 8.2-32.08 24.56-32.83 26.1 7.1 5.52 16.02 8.82 25.7 8.82 5.8 0 11.32-1.18 16.35-3.32zM18.9 78c.95-1.6 12.44-20.6 34.03-27.57.54-.18 1.1-.34 1.65-.5-1.05-2.37-2.2-4.75-3.4-7.1-20.9 6.26-41.18 6-43 5.96-.03.4-.03.84-.03 1.26C8.15 60.8 12.22 70.6 18.9 78zM9.04 41.5c1.87.03 19.1.1 38.7-5.1C40.78 24.1 33.3 13.76 32.2 12.25c-11.7 5.5-20.46 16.3-23.17 29.26zM40.2 9.43c1.15 1.54 8.75 11.88 15.6 24.47C70.7 28.33 77 19.87 77.75 18.8 70.34 12.25 60.64 8.27 50 8.27c-3.38 0-6.66.4-9.8 1.16zm42.2 14.2c-.88 1.2-7.9 10.17-23.37 16.48.97 2 1.9 4.03 2.77 6.07l.9 2.15c13.93-1.74 27.77 1.06 29.15 1.35-.1-9.87-3.62-18.93-9.45-26.04z"/></svg>