<svg version="1" id="Calque_1" xmlns="http://www.w3.org/2000/svg" viewBox="0 0 100 100"><style>.st0{fill:#333333;}</style><path class="st0" d="M50 1.23c-27.63 0-50 22.38-50 50 0 22.13 14.3 40.82 34.2 47.44 2.5.44 3.43-1.06 3.43-2.38 0-1.2-.07-5.13-.07-9.32-12.56 2.32-15.8-3.06-16.8-5.87-.57-1.43-3-5.87-5.14-7.05-1.74-.94-4.24-3.25-.06-3.32 3.94-.06 6.75 3.63 7.7 5.13 4.5 7.56 11.68 5.44 14.55 4.12.45-3.25 1.76-5.43 3.2-6.68-11.12-1.25-22.75-5.57-22.75-24.7 0-5.43 1.94-9.93 5.13-13.43-.5-1.25-2.25-6.38.5-13.25 0 0 4.18-1.3 13.75 5.13 4-1.13 8.25-1.7 12.5-1.7s8.5.57 12.5 1.7c9.56-6.5 13.75-5.13 13.75-5.13 2.75 6.88 1 12 .5 13.25C80.06 38.67 82 43.1 82 48.6c0 19.2-11.7 23.45-22.8 24.7 1.8 1.56 3.36 4.56 3.36 9.25 0 6.68-.06 12.06-.06 13.75 0 1.3.94 2.87 3.44 2.37C85.7 92.05 100 73.3 100 51.23c0-27.62-22.38-50-50-50z"/></svg>