<svg version="1" id="Calque_1" xmlns="http://www.w3.org/2000/svg" viewBox="0 0 100 100"><style>.st0{fill:#333333;}</style><path class="st0" d="M50 2.2c-27.07 0-49 21.94-49 49 0 21.7 14.03 40 33.5 46.5 2.45.43 3.37-1.04 3.37-2.33 0-1.16-.06-5.02-.06-9.13-12.3 2.27-15.48-3-16.46-5.75-.56-1.42-2.94-5.77-5.03-6.93-1.7-.92-4.15-3.2-.05-3.25 3.86-.06 6.62 3.55 7.54 5.02 4.4 7.4 11.44 5.33 14.26 4.04.43-3.18 1.7-5.33 3.12-6.55-10.9-1.23-22.3-5.45-22.3-24.2 0-5.32 1.9-9.73 5.03-13.16-.48-1.23-2.2-6.25.5-13 0 0 4.1-1.27 13.47 5.03 3.92-1.1 8.1-1.65 12.25-1.65s8.33.55 12.25 1.65c9.37-6.37 13.48-5.02 13.48-5.02 2.7 6.74.98 11.76.5 13 3.1 3.42 5 7.77 5 13.16 0 18.8-11.44 22.96-22.35 24.2 1.78 1.52 3.3 4.46 3.3 9.05 0 6.55-.05 11.8-.05 13.47 0 1.28.92 2.82 3.37 2.33C84.97 91.2 99 72.83 99 51.2c0-27.06-21.93-49-49-49z"/></svg>