<svg id="Calque_1" xmlns="http://www.w3.org/2000/svg" viewBox="0 0 100 100"><style>.st0{fill:#E24329;} .st1{fill:#FC6D26;} .st2{fill:#FCA326;}</style><path class="st0" d="M45.4 81.9L50 96.05l4.6-14.17 13.8-42.5H31.6z"/><path class="st1" d="M31.6 39.4H5.77L50 96.05 45.4 81.9z"/><path class="st2" d="M1.57 60.87L50 96.07 5.78 39.38 3 47.95.2 56.6c-.4 1.2-.18 2.45.52 3.42.23.32.52.6.85.85z"/><path class="st0" d="M16.87 5.26L5.77 39.4H31.6l-8.3-25.5-2.8-8.64c-.05-.14-.13-.26-.2-.38-.2-.33-.46-.57-.78-.73-.7-.33-1.55-.23-2.13.32-.23.2-.42.46-.53.8z"/><path class="st1" d="M54.6 81.9L50 96.05 94.22 39.4h-25.8z"/><path class="st2" d="M99.8 56.6l-5.58-17.2L50 96.05l48.43-35.2c.33-.23.62-.52.85-.84.7-.97.92-2.23.53-3.4z"/><path class="st0" d="M79.5 5.26L68.4 39.4h25.82L83.12 5.25v-.03c-.08-.2-.17-.4-.3-.55-.57-.74-1.57-.9-2.34-.52-.43.2-.8.56-.98 1.1z"/></svg>