<svg id="Calque_1" xmlns="http://www.w3.org/2000/svg" viewBox="0 0 110 100"><style>.st0{fill:#31FC8C;} .st1{fill:#09E370;} .st2{fill:#14C767;} .st3{fill:#01AB6B;}</style><g id="XMLID_98_"><g id="XMLID_99_"><path id="XMLID_103_" class="st0" d="M74 3.6c-.54-.27-1 0-1 .62v75.42l33.03 16.52c1.65.82 3 0 3-1.85V21.7c0-.36-.2-.7-.53-.85L74 3.6z"/><path id="XMLID_102_" class="st1" d="M37 61.66L72.42 4.08c.32-.52 1.03-.72 1.58-.45l34.24 17.1c.42.23.57.76.32 1.17L73 79.67l-36-18z"/><path id="XMLID_101_" class="st2" d="M4.96 5.13c-2.2-1.1-2.93-.3-1.65 1.8L37 61.66l36 18-35.78-58.14c-.15-.25-.37-.45-.63-.58L4.95 5.14z"/><path id="XMLID_100_" class="st3" d="M37 94.33c0 1.84-1.35 2.68-3 1.85L2.97 80.68c-1.1-.56-2-2-2-3.24V5.36c0-1.22.9-1.78 2-1.23l33.58 16.8c.27.12.44.4.44.7v72.7z"/></g></g></svg>