<svg id="Calque_1" xmlns="http://www.w3.org/2000/svg" viewBox="0 0 110 100"><style>.st0{fill:#1DA1F2;}</style><path class="st0" d="M34.97 93.89C75.72 93.87 98 60.1 98 30.83c0-.96 0-1.9-.06-2.86 4.33-3.13 8.1-7.03 11.06-11.47-3.97 1.77-8.24 2.96-12.72 3.5 4.57-2.75 8.08-7.1 9.74-12.26-4.28 2.53-9.02 4.38-14.07 5.37-4.04-4.3-9.8-7-16.17-7-12.24 0-22.16 9.94-22.16 22.17 0 1.74.2 3.43.57 5.05-18.42-.92-34.75-9.74-45.68-23.15-1.9 3.27-3 7.08-3 11.14 0 7.7 3.9 14.48 9.86 18.45-3.64-.1-7.05-1.1-10.04-2.77v.28C5.34 48 12.98 56.96 23.1 59c-1.85.5-3.8.77-5.83.77-1.42 0-2.8-.14-4.16-.4 2.83 8.8 11 15.2 20.7 15.4-7.58 5.93-17.13 9.47-27.5 9.47-1.8 0-3.56-.1-5.3-.3 9.8 6.28 21.45 9.95 33.97 9.95"/></svg>